<?xml version="1.0" standalone="no"?>
<!DOCTYPE svg PUBLIC "-//W3C//DTD SVG 1.1//EN" "http://www.w3.org/Graphics/SVG/1.1/DTD/svg11.dtd" >
<svg xmlns="http://www.w3.org/2000/svg" xmlns:xlink="http://www.w3.org/1999/xlink" version="1.1">
<metadata></metadata>
<defs>
<font id="pixel_hearts_lcregular" horiz-adv-x="1558" >
<font-face units-per-em="2048" ascent="1638" descent="-410" />
<missing-glyph horiz-adv-x="512" />
<glyph horiz-adv-x="0" />
<glyph horiz-adv-x="682" />
<glyph unicode=" "  horiz-adv-x="512" />
<glyph unicode="&#x09;" horiz-adv-x="512" />
<glyph unicode="&#xa0;" horiz-adv-x="512" />
<glyph unicode="!" horiz-adv-x="534" d="M0 0v256h256v-256h-256zM0 512v768h256v-768h-256z" />
<glyph unicode="&#x22;" horiz-adv-x="1046" d="M0 768v512h256v-512h-256zM512 768v512h256v-512h-256z" />
<glyph unicode="#" d="M0 256v256h256v256h-256v256h256v256h256v-256h256v256h256v-256h256v-256h-256v-256h256v-256h-256v-256h-256v256h-256v-256h-256v256h-256zM512 512h256v256h-256v-256z" />
<glyph unicode="$" d="M0 256v256h256v-256h-256zM0 768v256h256v-256h-256zM256 0v256h256v256h-256v256h256v256h-256v256h256v256h256v-256h256v-256h-256v-256h256v-256h-256v-256h256v-256h-256v-256h-256v256h-256zM1024 256v256h256v-256h-256zM1024 768v256h256v-256h-256z" />
<glyph unicode="%" d="M0 0v256h256v-256h-256zM0 768v512h512v-512h-512zM256 256v256h256v-256h-256zM512 512v256h256v-256h-256zM768 0v512h512v-512h-512zM768 768v256h256v-256h-256zM1024 1024v256h256v-256h-256z" />
<glyph unicode="&#x26;" horiz-adv-x="1814" d="M0 256v256h256v-256h-256zM0 768v256h256v-256h-256zM256 0v256h768v-256h-768zM256 512v256h512v256h256v-512h-768zM256 1024v256h512v-256h-512zM1024 256v256h256v-256h-256zM1280 0v256h256v-256h-256zM1280 512v256h256v-256h-256z" />
<glyph unicode="'" horiz-adv-x="534" d="M0 768v512h256v-512h-256z" />
<glyph unicode="(" horiz-adv-x="790" d="M0 256v768h256v-768h-256zM256 0v256h256v-256h-256zM256 1024v256h256v-256h-256z" />
<glyph unicode=")" horiz-adv-x="790" d="M0 0v256h256v-256h-256zM0 1024v256h256v-256h-256zM256 256v768h256v-768h-256z" />
<glyph unicode="*" d="M0 512v256h512v256h256v-256h512v-256h-512v-256h-256v256h-512zM256 0v256h256v-256h-256zM256 1024v256h256v-256h-256zM768 0v256h256v-256h-256zM768 1024v256h256v-256h-256z" />
<glyph unicode="+" d="M0 512v256h512v512h256v-512h512v-256h-512v-512h-256v512h-512z" />
<glyph unicode="," horiz-adv-x="534" d="M-256 0h256v-256h-256v256zM0 0v256h256v-256h-256z" />
<glyph unicode="-" d="M0 512v256h1280v-256h-1280z" />
<glyph unicode="." horiz-adv-x="534" d="M0 0v256h256v-256h-256z" />
<glyph unicode="/" d="M0 0v256h256v-256h-256zM256 256v256h256v-256h-256zM512 512v256h256v-256h-256zM768 768v256h256v-256h-256zM1024 1024v256h256v-256h-256z" />
<glyph unicode="0" horiz-adv-x="4118" d="M0 512v1280h256v-1280h-256zM256 256v256h256v-256h-256zM256 1792v256h256v-256h-256zM512 0v256h256v-256h-256zM512 2048v256h1024v-256h-1024zM768 0h256v-256h-256v256zM1024 -256h256v-256h-256v256zM1280 256v768h256v-768h-256zM1280 -512h256v-256h-256v256z M1536 0v256h768v-256h-768zM1536 -768h256v-256h-256v256zM1536 1024v256h768v-256h-768zM1536 1792v256h256v-256h-256zM1792 512v256h256v-256h-256zM1792 -1024h256v-256h-256v256zM1792 1536v256h256v-256h-256zM2048 -768h256v-256h-256v256zM2048 1792v256h256v-256 h-256zM2304 256v768h256v-768h-256zM2304 -512h256v-256h-256v256zM2304 2048v256h1024v-256h-1024zM2560 -256h256v-256h-256v256zM2816 0h256v-256h-256v256zM3072 0v256h256v-256h-256zM3328 256v256h256v-256h-256zM3328 1792v256h256v-256h-256zM3584 512v1280h256 v-1280h-256z" />
<glyph unicode="1" horiz-adv-x="4118" d="M0 512v1280h256v-1280h-256zM256 256v256h256v-256h-256zM256 1792v256h256v-256h-256zM512 0v256h256v-256h-256zM512 2048v256h1024v-256h-1024zM768 0h256v-256h-256v256zM1024 -256h256v-256h-256v256zM1280 -512h256v-256h-256v256zM1536 0v256h256v512h-256v256 h256v256h256v-1024h256v-256h-768zM1536 -768h256v-256h-256v256zM1536 1792v256h256v-256h-256zM1792 -1024h256v-256h-256v256zM1792 1536v256h256v-256h-256zM2048 -768h256v-256h-256v256zM2048 1792v256h256v-256h-256zM2304 -512h256v-256h-256v256zM2304 2048v256 h1024v-256h-1024zM2560 -256h256v-256h-256v256zM2816 0h256v-256h-256v256zM3072 0v256h256v-256h-256zM3328 256v256h256v-256h-256zM3328 1792v256h256v-256h-256zM3584 512v1280h256v-1280h-256z" />
<glyph unicode="2" horiz-adv-x="4118" d="M0 512v1280h256v-1280h-256zM256 256v256h256v-256h-256zM256 1792v256h256v-256h-256zM512 0v256h256v-256h-256zM512 2048v256h1024v-256h-1024zM768 0h256v-256h-256v256zM1024 -256h256v-256h-256v256zM1280 0v512h256v-256h1024v-256h-1280zM1280 -512h256v-256 h-256v256zM1280 1024v256h1024v-256h-1024zM1536 512v256h768v-256h-768zM1536 -768h256v-256h-256v256zM1536 1792v256h256v-256h-256zM1792 -1024h256v-256h-256v256zM1792 1536v256h256v-256h-256zM2048 -768h256v-256h-256v256zM2048 1792v256h256v-256h-256zM2304 -512 h256v-256h-256v256zM2304 768v256h256v-256h-256zM2304 2048v256h1024v-256h-1024zM2560 -256h256v-256h-256v256zM2816 0h256v-256h-256v256zM3072 0v256h256v-256h-256zM3328 256v256h256v-256h-256zM3328 1792v256h256v-256h-256zM3584 512v1280h256v-1280h-256z" />
<glyph unicode="3" horiz-adv-x="4118" d="M0 512v1280h256v-1280h-256zM256 256v256h256v-256h-256zM256 1792v256h256v-256h-256zM512 0v256h256v-256h-256zM512 2048v256h1024v-256h-1024zM768 0h256v-256h-256v256zM1024 -256h256v-256h-256v256zM1280 0v256h1024v-256h-1024zM1280 -512h256v-256h-256v256z M1280 1024v256h1024v-256h-1024zM1536 512v256h768v-256h-768zM1536 -768h256v-256h-256v256zM1536 1792v256h256v-256h-256zM1792 -1024h256v-256h-256v256zM1792 1536v256h256v-256h-256zM2048 -768h256v-256h-256v256zM2048 1792v256h256v-256h-256zM2304 256v256h256 v-256h-256zM2304 -512h256v-256h-256v256zM2304 768v256h256v-256h-256zM2304 2048v256h1024v-256h-1024zM2560 -256h256v-256h-256v256zM2816 0h256v-256h-256v256zM3072 0v256h256v-256h-256zM3328 256v256h256v-256h-256zM3328 1792v256h256v-256h-256zM3584 512v1280 h256v-1280h-256z" />
<glyph unicode="4" horiz-adv-x="4118" d="M0 512v1280h256v-1280h-256zM256 256v256h256v-256h-256zM256 1792v256h256v-256h-256zM512 0v256h256v-256h-256zM512 2048v256h1024v-256h-1024zM768 0h256v-256h-256v256zM1024 -256h256v-256h-256v256zM1280 -512h256v-256h-256v256zM1280 512v768h256v-512h512v512 h256v-512h256v-256h-256v-512h-256v512h-768zM1536 -768h256v-256h-256v256zM1536 1792v256h256v-256h-256zM1792 -1024h256v-256h-256v256zM1792 1536v256h256v-256h-256zM2048 -768h256v-256h-256v256zM2048 1792v256h256v-256h-256zM2304 -512h256v-256h-256v256z M2304 2048v256h1024v-256h-1024zM2560 -256h256v-256h-256v256zM2816 0h256v-256h-256v256zM3072 0v256h256v-256h-256zM3328 256v256h256v-256h-256zM3328 1792v256h256v-256h-256zM3584 512v1280h256v-1280h-256z" />
<glyph unicode="5" horiz-adv-x="4118" d="M0 512v1280h256v-1280h-256zM256 256v256h256v-256h-256zM256 1792v256h256v-256h-256zM512 0v256h256v-256h-256zM512 2048v256h1024v-256h-1024zM768 0h256v-256h-256v256zM1024 -256h256v-256h-256v256zM1280 0v256h1024v-256h-1024zM1280 -512h256v-256h-256v256z M1280 512v768h1280v-256h-1024v-256h768v-256h-1024zM1536 -768h256v-256h-256v256zM1536 1792v256h256v-256h-256zM1792 -1024h256v-256h-256v256zM1792 1536v256h256v-256h-256zM2048 -768h256v-256h-256v256zM2048 1792v256h256v-256h-256zM2304 256v256h256v-256h-256z M2304 -512h256v-256h-256v256zM2304 2048v256h1024v-256h-1024zM2560 -256h256v-256h-256v256zM2816 0h256v-256h-256v256zM3072 0v256h256v-256h-256zM3328 256v256h256v-256h-256zM3328 1792v256h256v-256h-256zM3584 512v1280h256v-1280h-256z" />
<glyph unicode="6" horiz-adv-x="4118" d="M0 512v1280h256v-1280h-256zM256 256v256h256v-256h-256zM256 1792v256h256v-256h-256zM512 0v256h256v-256h-256zM512 2048v256h1024v-256h-1024zM768 0h256v-256h-256v256zM1024 -256h256v-256h-256v256zM1280 256v768h256v-256h768v-256h-768v-256h-256zM1280 -512 h256v-256h-256v256zM1536 0v256h768v-256h-768zM1536 -768h256v-256h-256v256zM1536 1024v256h1024v-256h-1024zM1536 1792v256h256v-256h-256zM1792 -1024h256v-256h-256v256zM1792 1536v256h256v-256h-256zM2048 -768h256v-256h-256v256zM2048 1792v256h256v-256h-256z M2304 256v256h256v-256h-256zM2304 -512h256v-256h-256v256zM2304 2048v256h1024v-256h-1024zM2560 -256h256v-256h-256v256zM2816 0h256v-256h-256v256zM3072 0v256h256v-256h-256zM3328 256v256h256v-256h-256zM3328 1792v256h256v-256h-256zM3584 512v1280h256v-1280 h-256z" />
<glyph unicode="7" horiz-adv-x="4118" d="M0 512v1280h256v-1280h-256zM256 256v256h256v-256h-256zM256 1792v256h256v-256h-256zM512 0v256h256v-256h-256zM512 2048v256h1024v-256h-1024zM768 0h256v-256h-256v256zM1024 -256h256v-256h-256v256zM1280 -512h256v-256h-256v256zM1280 1024v256h1280v-512h-256 v256h-1024zM1536 -768h256v-256h-256v256zM1536 1792v256h256v-256h-256zM1792 0v512h256v-512h-256zM1792 -1024h256v-256h-256v256zM1792 1536v256h256v-256h-256zM2048 512v256h256v-256h-256zM2048 -768h256v-256h-256v256zM2048 1792v256h256v-256h-256zM2304 -512h256 v-256h-256v256zM2304 2048v256h1024v-256h-1024zM2560 -256h256v-256h-256v256zM2816 0h256v-256h-256v256zM3072 0v256h256v-256h-256zM3328 256v256h256v-256h-256zM3328 1792v256h256v-256h-256zM3584 512v1280h256v-1280h-256z" />
<glyph unicode="8" horiz-adv-x="4118" d="M0 512v1280h256v-1280h-256zM256 256v256h256v-256h-256zM256 1792v256h256v-256h-256zM512 0v256h256v-256h-256zM512 2048v256h1024v-256h-1024zM768 0h256v-256h-256v256zM1024 -256h256v-256h-256v256zM1280 256v256h256v-256h-256zM1280 -512h256v-256h-256v256z M1280 768v256h256v-256h-256zM1536 0v256h768v-256h-768zM1536 512v256h768v-256h-768zM1536 -768h256v-256h-256v256zM1536 1024v256h768v-256h-768zM1536 1792v256h256v-256h-256zM1792 -1024h256v-256h-256v256zM1792 1536v256h256v-256h-256zM2048 -768h256v-256h-256 v256zM2048 1792v256h256v-256h-256zM2304 256v256h256v-256h-256zM2304 -512h256v-256h-256v256zM2304 768v256h256v-256h-256zM2304 2048v256h1024v-256h-1024zM2560 -256h256v-256h-256v256zM2816 0h256v-256h-256v256zM3072 0v256h256v-256h-256zM3328 256v256h256v-256 h-256zM3328 1792v256h256v-256h-256zM3584 512v1280h256v-1280h-256z" />
<glyph unicode="9" horiz-adv-x="4118" d="M0 512v1280h256v-1280h-256zM256 256v256h256v-256h-256zM256 1792v256h256v-256h-256zM512 0v256h256v-256h-256zM512 2048v256h1024v-256h-1024zM768 0h256v-256h-256v256zM1024 -256h256v-256h-256v256zM1280 -512h256v-256h-256v256zM1280 768v256h256v-256h-256z M1536 0v256h768v-256h-768zM1536 512v256h768v256h256v-768h-256v256h-768zM1536 -768h256v-256h-256v256zM1536 1024v256h768v-256h-768zM1536 1792v256h256v-256h-256zM1792 -1024h256v-256h-256v256zM1792 1536v256h256v-256h-256zM2048 -768h256v-256h-256v256z M2048 1792v256h256v-256h-256zM2304 -512h256v-256h-256v256zM2304 2048v256h1024v-256h-1024zM2560 -256h256v-256h-256v256zM2816 0h256v-256h-256v256zM3072 0v256h256v-256h-256zM3328 256v256h256v-256h-256zM3328 1792v256h256v-256h-256zM3584 512v1280h256v-1280 h-256z" />
<glyph unicode=":" horiz-adv-x="534" d="M0 256v256h256v-256h-256zM0 768v256h256v-256h-256z" />
<glyph unicode=";" horiz-adv-x="534" d="M-256 0h256v-256h-256v256zM0 0v512h256v-512h-256zM0 768v256h256v-256h-256z" />
<glyph unicode="&#x3c;" horiz-adv-x="1046" d="M0 512v256h256v-256h-256zM256 256v256h256v-256h-256zM256 768v256h256v-256h-256zM512 0v256h256v-256h-256zM512 1024v256h256v-256h-256z" />
<glyph unicode="=" d="M0 512v256h1280v-256h-1280zM0 1024v256h1280v-256h-1280z" />
<glyph unicode="&#x3e;" horiz-adv-x="1046" d="M0 0v256h256v-256h-256zM0 1024v256h256v-256h-256zM256 256v256h256v-256h-256zM256 768v256h256v-256h-256zM512 512v256h256v-256h-256z" />
<glyph unicode="?" d="M0 768v256h256v-256h-256zM256 1024v256h768v-256h-768zM512 0v256h256v-256h-256zM512 512v256h512v-256h-512zM1024 768v256h256v-256h-256z" />
<glyph unicode="@" d="M0 256v768h256v-768h-256zM256 0v256h256v512h512v256h256v-1024h-1024zM256 1024v256h768v-256h-768zM768 256h256v256h-256v-256z" />
<glyph unicode="A" horiz-adv-x="4118" d="M0 512v1280h256v-1280h-256zM256 256v256h256v-256h-256zM256 1792v256h256v-256h-256zM512 0v256h256v-256h-256zM512 2048v256h1024v-256h-1024zM768 0h256v-256h-256v256zM1024 -256h256v-256h-256v256zM1280 0v1024h256v-256h768v256h256v-1024h-256v512h-768v-512 h-256zM1280 -512h256v-256h-256v256zM1536 -768h256v-256h-256v256zM1536 1024v256h768v-256h-768zM1536 1792v256h256v-256h-256zM1792 -1024h256v-256h-256v256zM1792 1536v256h256v-256h-256zM2048 -768h256v-256h-256v256zM2048 1792v256h256v-256h-256zM2304 -512h256 v-256h-256v256zM2304 2048v256h1024v-256h-1024zM2560 -256h256v-256h-256v256zM2816 0h256v-256h-256v256zM3072 0v256h256v-256h-256zM3328 256v256h256v-256h-256zM3328 1792v256h256v-256h-256zM3584 512v1280h256v-1280h-256z" />
<glyph unicode="B" horiz-adv-x="4118" d="M0 512v1280h256v-1280h-256zM256 256v256h256v-256h-256zM256 1792v256h256v-256h-256zM512 0v256h256v-256h-256zM512 2048v256h1024v-256h-1024zM768 0h256v-256h-256v256zM1024 -256h256v-256h-256v256zM1280 0v1280h1024v-256h-768v-256h768v-256h-768v-256h768v-256 h-1024zM1280 -512h256v-256h-256v256zM1536 -768h256v-256h-256v256zM1536 1792v256h256v-256h-256zM1792 -1024h256v-256h-256v256zM1792 1536v256h256v-256h-256zM2048 -768h256v-256h-256v256zM2048 1792v256h256v-256h-256zM2304 256v256h256v-256h-256zM2304 -512h256 v-256h-256v256zM2304 768v256h256v-256h-256zM2304 2048v256h1024v-256h-1024zM2560 -256h256v-256h-256v256zM2816 0h256v-256h-256v256zM3072 0v256h256v-256h-256zM3328 256v256h256v-256h-256zM3328 1792v256h256v-256h-256zM3584 512v1280h256v-1280h-256z" />
<glyph unicode="C" horiz-adv-x="4118" d="M0 512v1280h256v-1280h-256zM256 256v256h256v-256h-256zM256 1792v256h256v-256h-256zM512 0v256h256v-256h-256zM512 2048v256h1024v-256h-1024zM768 0h256v-256h-256v256zM1024 -256h256v-256h-256v256zM1280 256v768h256v-768h-256zM1280 -512h256v-256h-256v256z M1536 0v256h768v-256h-768zM1536 -768h256v-256h-256v256zM1536 1024v256h768v-256h-768zM1536 1792v256h256v-256h-256zM1792 -1024h256v-256h-256v256zM1792 1536v256h256v-256h-256zM2048 -768h256v-256h-256v256zM2048 1792v256h256v-256h-256zM2304 256v256h256v-256 h-256zM2304 -512h256v-256h-256v256zM2304 768v256h256v-256h-256zM2304 2048v256h1024v-256h-1024zM2560 -256h256v-256h-256v256zM2816 0h256v-256h-256v256zM3072 0v256h256v-256h-256zM3328 256v256h256v-256h-256zM3328 1792v256h256v-256h-256zM3584 512v1280h256 v-1280h-256z" />
<glyph unicode="D" horiz-adv-x="4118" d="M0 512v1280h256v-1280h-256zM256 256v256h256v-256h-256zM256 1792v256h256v-256h-256zM512 0v256h256v-256h-256zM512 2048v256h1024v-256h-1024zM768 0h256v-256h-256v256zM1024 -256h256v-256h-256v256zM1280 0v1280h1024v-256h-768v-768h768v-256h-1024zM1280 -512 h256v-256h-256v256zM1536 -768h256v-256h-256v256zM1536 1792v256h256v-256h-256zM1792 -1024h256v-256h-256v256zM1792 1536v256h256v-256h-256zM2048 -768h256v-256h-256v256zM2048 1792v256h256v-256h-256zM2304 256v768h256v-768h-256zM2304 -512h256v-256h-256v256z M2304 2048v256h1024v-256h-1024zM2560 -256h256v-256h-256v256zM2816 0h256v-256h-256v256zM3072 0v256h256v-256h-256zM3328 256v256h256v-256h-256zM3328 1792v256h256v-256h-256zM3584 512v1280h256v-1280h-256z" />
<glyph unicode="E" horiz-adv-x="4118" d="M0 512v1280h256v-1280h-256zM256 256v256h256v-256h-256zM256 1792v256h256v-256h-256zM512 0v256h256v-256h-256zM512 2048v256h1024v-256h-1024zM768 0h256v-256h-256v256zM1024 -256h256v-256h-256v256zM1280 0v1280h1280v-256h-1024v-256h512v-256h-512v-256h1024 v-256h-1280zM1280 -512h256v-256h-256v256zM1536 -768h256v-256h-256v256zM1536 1792v256h256v-256h-256zM1792 -1024h256v-256h-256v256zM1792 1536v256h256v-256h-256zM2048 -768h256v-256h-256v256zM2048 1792v256h256v-256h-256zM2304 -512h256v-256h-256v256z M2304 2048v256h1024v-256h-1024zM2560 -256h256v-256h-256v256zM2816 0h256v-256h-256v256zM3072 0v256h256v-256h-256zM3328 256v256h256v-256h-256zM3328 1792v256h256v-256h-256zM3584 512v1280h256v-1280h-256z" />
<glyph unicode="F" horiz-adv-x="4118" d="M0 512v1280h256v-1280h-256zM256 256v256h256v-256h-256zM256 1792v256h256v-256h-256zM512 0v256h256v-256h-256zM512 2048v256h1024v-256h-1024zM768 0h256v-256h-256v256zM1024 -256h256v-256h-256v256zM1280 0v1280h1280v-256h-1024v-256h768v-256h-768v-512h-256z M1280 -512h256v-256h-256v256zM1536 -768h256v-256h-256v256zM1536 1792v256h256v-256h-256zM1792 -1024h256v-256h-256v256zM1792 1536v256h256v-256h-256zM2048 -768h256v-256h-256v256zM2048 1792v256h256v-256h-256zM2304 -512h256v-256h-256v256zM2304 2048v256h1024 v-256h-1024zM2560 -256h256v-256h-256v256zM2816 0h256v-256h-256v256zM3072 0v256h256v-256h-256zM3328 256v256h256v-256h-256zM3328 1792v256h256v-256h-256zM3584 512v1280h256v-1280h-256z" />
<glyph unicode="G" horiz-adv-x="4118" d="M-8 1806l264 2v-1280l-248 4zM256 272v256h256v-256h-256zM256 1808v256h256v-256h-256zM512 16v256h256v-256h-256zM512 2064v256h1024v-256h-1024zM768 16h256v-256h-256v256zM1024 -240h256v-256h-256v256zM1280 272v768h256v-768h-256zM1280 -496h256v-256h-256v256z M1536 16v256h768v-256h-768zM1536 -752h256v-256h-256v256zM1536 1040v256h1024v-256h-1024zM1536 1808v256h256v-256h-256zM1792 -1008h256v-256h-256v256zM1792 1552v256h256v-256h-256zM2048 528v256h256v-256h-256zM2048 -752h256v-256h-256v256zM2048 1808v256h256 v-256h-256zM2304 272v256h512v-256h-512zM2304 -496h256v-256h-256v256zM2304 2064v256h1024v-256h-1024zM2560 -240h256v-256h-256v256zM2816 16h256v-256h-256v256zM3072 16v256h256v-256h-256zM3328 272v256h256v-256h-256zM3328 1808v256h256v-256h-256zM3584 528v1280 h256v-1280h-256z" />
<glyph unicode="H" horiz-adv-x="4118" d="M0 512v1280h256v-1280h-256zM256 256v256h256v-256h-256zM256 1792v256h256v-256h-256zM512 0v256h256v-256h-256zM512 2048v256h1024v-256h-1024zM768 0h256v-256h-256v256zM1024 -256h256v-256h-256v256zM1280 0v1280h256v-512h768v512h256v-1280h-256v512h-768v-512 h-256zM1280 -512h256v-256h-256v256zM1536 -768h256v-256h-256v256zM1536 1792v256h256v-256h-256zM1792 -1024h256v-256h-256v256zM1792 1536v256h256v-256h-256zM2048 -768h256v-256h-256v256zM2048 1792v256h256v-256h-256zM2304 -512h256v-256h-256v256zM2304 2048v256 h1024v-256h-1024zM2560 -256h256v-256h-256v256zM2816 0h256v-256h-256v256zM3072 0v256h256v-256h-256zM3328 256v256h256v-256h-256zM3328 1792v256h256v-256h-256zM3584 512v1280h256v-1280h-256z" />
<glyph unicode="I" horiz-adv-x="4118" d="M0 512v1280h256v-1280h-256zM256 256v256h256v-256h-256zM256 1792v256h256v-256h-256zM512 0v256h256v-256h-256zM512 2048v256h1024v-256h-1024zM768 0h256v-256h-256v256zM1024 -256h256v-256h-256v256zM1280 0v256h512v768h-512v256h1280v-256h-512v-768h512v-256 h-1280zM1280 -512h256v-256h-256v256zM1536 -768h256v-256h-256v256zM1536 1792v256h256v-256h-256zM1792 -1024h256v-256h-256v256zM1792 1536v256h256v-256h-256zM2048 -768h256v-256h-256v256zM2048 1792v256h256v-256h-256zM2304 -512h256v-256h-256v256zM2304 2048v256 h1024v-256h-1024zM2560 -256h256v-256h-256v256zM2816 0h256v-256h-256v256zM3072 0v256h256v-256h-256zM3328 256v256h256v-256h-256zM3328 1792v256h256v-256h-256zM3584 512v1280h256v-1280h-256z" />
<glyph unicode="J" horiz-adv-x="4118" d="M0 512v1280h256v-1280h-256zM256 256v256h256v-256h-256zM256 1792v256h256v-256h-256zM512 0v256h256v-256h-256zM512 2048v256h1024v-256h-1024zM768 0h256v-256h-256v256zM1024 -256h256v-256h-256v256zM1280 256v256h256v-256h-256zM1280 -512h256v-256h-256v256z M1280 1024v256h1280v-256h-256v-768h-256v768h-768zM1536 0v256h512v-256h-512zM1536 -768h256v-256h-256v256zM1536 1792v256h256v-256h-256zM1792 -1024h256v-256h-256v256zM1792 1536v256h256v-256h-256zM2048 -768h256v-256h-256v256zM2048 1792v256h256v-256h-256z M2304 -512h256v-256h-256v256zM2304 2048v256h1024v-256h-1024zM2560 -256h256v-256h-256v256zM2816 0h256v-256h-256v256zM3072 0v256h256v-256h-256zM3328 256v256h256v-256h-256zM3328 1792v256h256v-256h-256zM3584 512v1280h256v-1280h-256z" />
<glyph unicode="K" horiz-adv-x="4118" d="M0 512v1280h256v-1280h-256zM256 256v256h256v-256h-256zM256 1792v256h256v-256h-256zM512 0v256h256v-256h-256zM512 2048v256h1024v-256h-1024zM768 0h256v-256h-256v256zM1024 -256h256v-256h-256v256zM1280 0v1280h256v-512h768v-256h-768v-512h-256zM1280 -512h256 v-256h-256v256zM1536 -768h256v-256h-256v256zM1536 1792v256h256v-256h-256zM1792 -1024h256v-256h-256v256zM1792 1536v256h256v-256h-256zM2048 -768h256v-256h-256v256zM2048 1792v256h256v-256h-256zM2304 0v512h256v-512h-256zM2304 -512h256v-256h-256v256zM2304 768 v512h256v-512h-256zM2304 2048v256h1024v-256h-1024zM2560 -256h256v-256h-256v256zM2816 0h256v-256h-256v256zM3072 0v256h256v-256h-256zM3328 256v256h256v-256h-256zM3328 1792v256h256v-256h-256zM3584 512v1280h256v-1280h-256z" />
<glyph unicode="L" horiz-adv-x="4118" d="M0 512v1280h256v-1280h-256zM256 256v256h256v-256h-256zM256 1792v256h256v-256h-256zM512 0v256h256v-256h-256zM512 2048v256h1024v-256h-1024zM768 0h256v-256h-256v256zM1024 -256h256v-256h-256v256zM1280 0v1280h256v-1024h1024v-256h-1280zM1280 -512h256v-256 h-256v256zM1536 -768h256v-256h-256v256zM1536 1792v256h256v-256h-256zM1792 -1024h256v-256h-256v256zM1792 1536v256h256v-256h-256zM2048 -768h256v-256h-256v256zM2048 1792v256h256v-256h-256zM2304 -512h256v-256h-256v256zM2304 2048v256h1024v-256h-1024z M2560 -256h256v-256h-256v256zM2816 0h256v-256h-256v256zM3072 0v256h256v-256h-256zM3328 256v256h256v-256h-256zM3328 1792v256h256v-256h-256zM3584 512v1280h256v-1280h-256z" />
<glyph unicode="M" horiz-adv-x="4118" d="M0 512v1280h256v-1280h-256zM256 256v256h256v-256h-256zM256 1792v256h256v-256h-256zM512 0v256h256v-256h-256zM512 2048v256h1024v-256h-1024zM768 0h256v-256h-256v256zM1024 -256h256v-256h-256v256zM1280 0v1280h256v-256h256v-256h-256v-768h-256zM1280 -512h256 v-256h-256v256zM1536 -768h256v-256h-256v256zM1536 1792v256h256v-256h-256zM1792 512v256h256v-256h-256zM1792 -1024h256v-256h-256v256zM1792 1536v256h256v-256h-256zM2048 -768h256v-256h-256v256zM2048 768v256h256v256h256v-1280h-256v768h-256zM2048 1792v256h256 v-256h-256zM2304 -512h256v-256h-256v256zM2304 2048v256h1024v-256h-1024zM2560 -256h256v-256h-256v256zM2816 0h256v-256h-256v256zM3072 0v256h256v-256h-256zM3328 256v256h256v-256h-256zM3328 1792v256h256v-256h-256zM3584 512v1280h256v-1280h-256z" />
<glyph unicode="N" horiz-adv-x="4118" d="M0 512v1280h256v-1280h-256zM256 256v256h256v-256h-256zM256 1792v256h256v-256h-256zM512 0v256h256v-256h-256zM512 2048v256h1024v-256h-1024zM768 0h256v-256h-256v256zM1024 -256h256v-256h-256v256zM1280 0v1280h256v-256h256v-256h-256v-768h-256zM1280 -512h256 v-256h-256v256zM1536 -768h256v-256h-256v256zM1536 1792v256h256v-256h-256zM1792 512v256h256v-256h-256zM1792 -1024h256v-256h-256v256zM1792 1536v256h256v-256h-256zM2048 256v256h256v768h256v-1280h-256v256h-256zM2048 -768h256v-256h-256v256zM2048 1792v256h256 v-256h-256zM2304 -512h256v-256h-256v256zM2304 2048v256h1024v-256h-1024zM2560 -256h256v-256h-256v256zM2816 0h256v-256h-256v256zM3072 0v256h256v-256h-256zM3328 256v256h256v-256h-256zM3328 1792v256h256v-256h-256zM3584 512v1280h256v-1280h-256z" />
<glyph unicode="O" horiz-adv-x="4118" d="M0 512v1280h256v-1280h-256zM256 256v256h256v-256h-256zM256 1792v256h256v-256h-256zM512 0v256h256v-256h-256zM512 2048v256h1024v-256h-1024zM768 0h256v-256h-256v256zM1024 -256h256v-256h-256v256zM1280 256v768h256v-768h-256zM1280 -512h256v-256h-256v256z M1536 0v256h768v-256h-768zM1536 -768h256v-256h-256v256zM1536 1024v256h768v-256h-768zM1536 1792v256h256v-256h-256zM1792 -1024h256v-256h-256v256zM1792 1536v256h256v-256h-256zM2048 -768h256v-256h-256v256zM2048 1792v256h256v-256h-256zM2304 256v768h256v-768 h-256zM2304 -512h256v-256h-256v256zM2304 2048v256h1024v-256h-1024zM2560 -256h256v-256h-256v256zM2816 0h256v-256h-256v256zM3072 0v256h256v-256h-256zM3328 256v256h256v-256h-256zM3328 1792v256h256v-256h-256zM3584 512v1280h256v-1280h-256z" />
<glyph unicode="P" horiz-adv-x="4118" d="M0 512v1280h256v-1280h-256zM256 256v256h256v-256h-256zM256 1792v256h256v-256h-256zM512 0v256h256v-256h-256zM512 2048v256h1024v-256h-1024zM768 0h256v-256h-256v256zM1024 -256h256v-256h-256v256zM1280 0v1280h1024v-256h-768v-256h768v-256h-768v-512h-256z M1280 -512h256v-256h-256v256zM1536 -768h256v-256h-256v256zM1536 1792v256h256v-256h-256zM1792 -1024h256v-256h-256v256zM1792 1536v256h256v-256h-256zM2048 -768h256v-256h-256v256zM2048 1792v256h256v-256h-256zM2304 -512h256v-256h-256v256zM2304 768v256h256 v-256h-256zM2304 2048v256h1024v-256h-1024zM2560 -256h256v-256h-256v256zM2816 0h256v-256h-256v256zM3072 0v256h256v-256h-256zM3328 256v256h256v-256h-256zM3328 1792v256h256v-256h-256zM3584 512v1280h256v-1280h-256z" />
<glyph unicode="Q" horiz-adv-x="4118" d="M0 512v1280h256v-1280h-256zM256 256v256h256v-256h-256zM256 1792v256h256v-256h-256zM512 0v256h256v-256h-256zM512 2048v256h1024v-256h-1024zM768 0h256v-256h-256v256zM1024 -256h256v-256h-256v256zM1280 256v768h256v-768h-256zM1280 -512h256v-256h-256v256z M1536 0v256h256v256h256v-256h256v768h256v-768h256v-256h-1280zM1536 -768h256v-256h-256v256zM1536 1024v256h768v-256h-768zM1536 1792v256h256v-256h-256zM1792 -1024h256v-256h-256v256zM1792 1536v256h256v-256h-256zM2048 -768h256v-256h-256v256zM2048 1792v256h256 v-256h-256zM2304 -512h256v-256h-256v256zM2304 2048v256h1024v-256h-1024zM2560 -256h256v-256h-256v256zM2816 0h256v-256h-256v256zM3072 0v256h256v-256h-256zM3328 256v256h256v-256h-256zM3328 1792v256h256v-256h-256zM3584 512v1280h256v-1280h-256z" />
<glyph unicode="R" horiz-adv-x="4118" d="M0 512v1280h256v-1280h-256zM256 256v256h256v-256h-256zM256 1792v256h256v-256h-256zM512 0v256h256v-256h-256zM512 2048v256h1024v-256h-1024zM768 0h256v-256h-256v256zM1024 -256h256v-256h-256v256zM1280 0v1280h1024v-256h-768v-256h768v-256h-768v-512h-256z M1280 -512h256v-256h-256v256zM1536 -768h256v-256h-256v256zM1536 1792v256h256v-256h-256zM1792 -1024h256v-256h-256v256zM1792 1536v256h256v-256h-256zM2048 -768h256v-256h-256v256zM2048 1792v256h256v-256h-256zM2304 0v512h256v-512h-256zM2304 -512h256v-256h-256 v256zM2304 768v256h256v-256h-256zM2304 2048v256h1024v-256h-1024zM2560 -256h256v-256h-256v256zM2816 0h256v-256h-256v256zM3072 0v256h256v-256h-256zM3328 256v256h256v-256h-256zM3328 1792v256h256v-256h-256zM3584 512v1280h256v-1280h-256z" />
<glyph unicode="S" horiz-adv-x="4118" d="M0 512v1280h256v-1280h-256zM256 256v256h256v-256h-256zM256 1792v256h256v-256h-256zM512 0v256h256v-256h-256zM512 2048v256h1024v-256h-1024zM768 0h256v-256h-256v256zM1024 -256h256v-256h-256v256zM1280 0v256h1024v-256h-1024zM1280 -512h256v-256h-256v256z M1280 768v256h256v-256h-256zM1536 512v256h768v-256h-768zM1536 -768h256v-256h-256v256zM1536 1024v256h1024v-256h-1024zM1536 1792v256h256v-256h-256zM1792 -1024h256v-256h-256v256zM1792 1536v256h256v-256h-256zM2048 -768h256v-256h-256v256zM2048 1792v256h256 v-256h-256zM2304 256v256h256v-256h-256zM2304 -512h256v-256h-256v256zM2304 2048v256h1024v-256h-1024zM2560 -256h256v-256h-256v256zM2816 0h256v-256h-256v256zM3072 0v256h256v-256h-256zM3328 256v256h256v-256h-256zM3328 1792v256h256v-256h-256zM3584 512v1280 h256v-1280h-256z" />
<glyph unicode="T" horiz-adv-x="4118" d="M0 512v1280h256v-1280h-256zM256 256v256h256v-256h-256zM256 1792v256h256v-256h-256zM512 0v256h256v-256h-256zM512 2048v256h1024v-256h-1024zM768 0h256v-256h-256v256zM1024 -256h256v-256h-256v256zM1280 -512h256v-256h-256v256zM1280 1024v256h1280v-256h-512 v-1024h-256v1024h-512zM1536 -768h256v-256h-256v256zM1536 1792v256h256v-256h-256zM1792 -1024h256v-256h-256v256zM1792 1536v256h256v-256h-256zM2048 -768h256v-256h-256v256zM2048 1792v256h256v-256h-256zM2304 -512h256v-256h-256v256zM2304 2048v256h1024v-256 h-1024zM2560 -256h256v-256h-256v256zM2816 0h256v-256h-256v256zM3072 0v256h256v-256h-256zM3328 256v256h256v-256h-256zM3328 1792v256h256v-256h-256zM3584 512v1280h256v-1280h-256z" />
<glyph unicode="U" horiz-adv-x="4118" d="M0 512v1280h256v-1280h-256zM256 256v256h256v-256h-256zM256 1792v256h256v-256h-256zM512 0v256h256v-256h-256zM512 2048v256h1024v-256h-1024zM768 0h256v-256h-256v256zM1024 -256h256v-256h-256v256zM1280 256v1024h256v-1024h-256zM1280 -512h256v-256h-256v256z M1536 0v256h768v-256h-768zM1536 -768h256v-256h-256v256zM1536 1792v256h256v-256h-256zM1792 -1024h256v-256h-256v256zM1792 1536v256h256v-256h-256zM2048 -768h256v-256h-256v256zM2048 1792v256h256v-256h-256zM2304 256v1024h256v-1024h-256zM2304 -512h256v-256 h-256v256zM2304 2048v256h1024v-256h-1024zM2560 -256h256v-256h-256v256zM2816 0h256v-256h-256v256zM3072 0v256h256v-256h-256zM3328 256v256h256v-256h-256zM3328 1792v256h256v-256h-256zM3584 512v1280h256v-1280h-256z" />
<glyph unicode="V" horiz-adv-x="4118" d="M0 512v1280h256v-1280h-256zM256 256v256h256v-256h-256zM256 1792v256h256v-256h-256zM512 0v256h256v-256h-256zM512 2048v256h1024v-256h-1024zM768 0h256v-256h-256v256zM1024 -256h256v-256h-256v256zM1280 -512h256v-256h-256v256zM1280 512v768h256v-768h-256z M1536 256v256h256v-256h-256zM1536 -768h256v-256h-256v256zM1536 1792v256h256v-256h-256zM1792 0v256h256v-256h-256zM1792 -1024h256v-256h-256v256zM1792 1536v256h256v-256h-256zM2048 256v256h256v-256h-256zM2048 -768h256v-256h-256v256zM2048 1792v256h256v-256 h-256zM2304 -512h256v-256h-256v256zM2304 512v768h256v-768h-256zM2304 2048v256h1024v-256h-1024zM2560 -256h256v-256h-256v256zM2816 0h256v-256h-256v256zM3072 0v256h256v-256h-256zM3328 256v256h256v-256h-256zM3328 1792v256h256v-256h-256zM3584 512v1280h256 v-1280h-256z" />
<glyph unicode="W" horiz-adv-x="4118" d="M0 512v1280h256v-1280h-256zM256 256v256h256v-256h-256zM256 1792v256h256v-256h-256zM512 0v256h256v-256h-256zM512 2048v256h1024v-256h-1024zM768 0h256v-256h-256v256zM1024 -256h256v-256h-256v256zM1280 256v1024h256v-1024h-256zM1280 -512h256v-256h-256v256z M1536 0v256h256v-256h-256zM1536 -768h256v-256h-256v256zM1536 1792v256h256v-256h-256zM1792 256v512h256v-512h-256zM1792 -1024h256v-256h-256v256zM1792 1536v256h256v-256h-256zM2048 0v256h256v-256h-256zM2048 -768h256v-256h-256v256zM2048 1792v256h256v-256h-256 zM2304 256v1024h256v-1024h-256zM2304 -512h256v-256h-256v256zM2304 2048v256h1024v-256h-1024zM2560 -256h256v-256h-256v256zM2816 0h256v-256h-256v256zM3072 0v256h256v-256h-256zM3328 256v256h256v-256h-256zM3328 1792v256h256v-256h-256zM3584 512v1280h256v-1280 h-256z" />
<glyph unicode="X" horiz-adv-x="4118" d="M0 512v1280h256v-1280h-256zM256 256v256h256v-256h-256zM256 1792v256h256v-256h-256zM512 0v256h256v-256h-256zM512 2048v256h1024v-256h-1024zM768 0h256v-256h-256v256zM1024 -256h256v-256h-256v256zM1280 0v512h256v-512h-256zM1280 -512h256v-256h-256v256z M1280 768v512h256v-512h-256zM1536 512v256h768v-256h-768zM1536 -768h256v-256h-256v256zM1536 1792v256h256v-256h-256zM1792 -1024h256v-256h-256v256zM1792 1536v256h256v-256h-256zM2048 -768h256v-256h-256v256zM2048 1792v256h256v-256h-256zM2304 0v512h256v-512 h-256zM2304 -512h256v-256h-256v256zM2304 768v512h256v-512h-256zM2304 2048v256h1024v-256h-1024zM2560 -256h256v-256h-256v256zM2816 0h256v-256h-256v256zM3072 0v256h256v-256h-256zM3328 256v256h256v-256h-256zM3328 1792v256h256v-256h-256zM3584 512v1280h256 v-1280h-256z" />
<glyph unicode="Y" horiz-adv-x="4118" d="M0 512v1280h256v-1280h-256zM256 256v256h256v-256h-256zM256 1792v256h256v-256h-256zM512 0v256h256v-256h-256zM512 2048v256h1024v-256h-1024zM768 0h256v-256h-256v256zM1024 -256h256v-256h-256v256zM1280 -512h256v-256h-256v256zM1280 768v512h256v-512h-256z M1536 512v256h256v-256h-256zM1536 -768h256v-256h-256v256zM1536 1792v256h256v-256h-256zM1792 0v512h256v-512h-256zM1792 -1024h256v-256h-256v256zM1792 1536v256h256v-256h-256zM2048 512v256h256v-256h-256zM2048 -768h256v-256h-256v256zM2048 1792v256h256v-256 h-256zM2304 -512h256v-256h-256v256zM2304 768v512h256v-512h-256zM2304 2048v256h1024v-256h-1024zM2560 -256h256v-256h-256v256zM2816 0h256v-256h-256v256zM3072 0v256h256v-256h-256zM3328 256v256h256v-256h-256zM3328 1792v256h256v-256h-256zM3584 512v1280h256 v-1280h-256z" />
<glyph unicode="Z" horiz-adv-x="4118" d="M0 512v1280h256v-1280h-256zM256 256v256h256v-256h-256zM256 1792v256h256v-256h-256zM512 0v256h256v-256h-256zM512 2048v256h1024v-256h-1024zM768 0h256v-256h-256v256zM1024 -256h256v-256h-256v256zM1280 0v512h256v-256h1024v-256h-1280zM1280 -512h256v-256 h-256v256zM1280 1024v256h1280v-512h-256v256h-1024zM1536 512v256h768v-256h-768zM1536 -768h256v-256h-256v256zM1536 1792v256h256v-256h-256zM1792 -1024h256v-256h-256v256zM1792 1536v256h256v-256h-256zM2048 -768h256v-256h-256v256zM2048 1792v256h256v-256h-256z M2304 -512h256v-256h-256v256zM2304 2048v256h1024v-256h-1024zM2560 -256h256v-256h-256v256zM2816 0h256v-256h-256v256zM3072 0v256h256v-256h-256zM3328 256v256h256v-256h-256zM3328 1792v256h256v-256h-256zM3584 512v1280h256v-1280h-256z" />
<glyph unicode="[" horiz-adv-x="790" d="M0 0v1280h512v-256h-256v-768h256v-256h-512z" />
<glyph unicode="\" d="M0 1024v256h256v-256h-256zM256 768v256h256v-256h-256zM512 512v256h256v-256h-256zM768 256v256h256v-256h-256zM1024 0v256h256v-256h-256z" />
<glyph unicode="]" horiz-adv-x="790" d="M0 0v256h256v768h-256v256h512v-1280h-512z" />
<glyph unicode="^" horiz-adv-x="1046" d="M0 512v512h256v-512h-256zM256 1024v256h256v-256h-256zM512 512v512h256v-512h-256z" />
<glyph unicode="_" horiz-adv-x="1046" d="M0 0v256h768v-256h-768z" />
<glyph unicode="`" horiz-adv-x="790" d="M0 1024v256h256v-256h-256zM256 768v256h256v-256h-256z" />
<glyph unicode="a" d="M0 64v1024h256v-256h768v256h256v-1024h-256v512h-768v-512h-256zM256 1088v256h768v-256h-768z" />
<glyph unicode="b" d="M0 0v1280h1024v-256h-768v-256h768v-256h-768v-256h768v-256h-1024zM1024 256v256h256v-256h-256zM1024 768v256h256v-256h-256z" />
<glyph unicode="c" d="M0 256v768h256v-768h-256zM256 0v256h768v-256h-768zM256 1024v256h768v-256h-768zM1024 256v256h256v-256h-256zM1024 768v256h256v-256h-256z" />
<glyph unicode="d" d="M0 0v1280h1024v-256h-768v-768h768v-256h-1024zM1024 256v768h256v-768h-256z" />
<glyph unicode="e" d="M0 0v1280h1280v-256h-1024v-256h512v-256h-512v-256h1024v-256h-1280z" />
<glyph unicode="f" d="M0 0v1280h1280v-256h-1024v-256h512v-256h-512v-512h-256z" />
<glyph unicode="g" horiz-adv-x="1814" d="M0 256v768h256v-768h-256zM256 0v256h768v-256h-768zM256 1024v256h1024v-256h-1024zM768 512v256h256v-256h-256zM1024 256v256h512v-256h-512z" />
<glyph unicode="h" d="M0 0v1280h256v-512h768v512h256v-1280h-256v512h-768v-512h-256z" />
<glyph unicode="i" d="M0 0v256h512v768h-512v256h1280v-256h-512v-768h512v-256h-1280z" />
<glyph unicode="j" d="M0 256v256h256v-256h-256zM0 1024v256h1280v-256h-256v-768h-256v768h-768zM256 0v256h512v-256h-512z" />
<glyph unicode="k" d="M0 0v1280h256v-512h768v-256h-768v-512h-256zM1024 0v512h256v-512h-256zM1024 768v512h256v-512h-256z" />
<glyph unicode="l" d="M0 0v1280h256v-1024h1024v-256h-1280z" />
<glyph unicode="m" d="M0 0v1280h256v-256h256v-256h-256v-768h-256zM512 512v256h256v-256h-256zM768 768v256h256v256h256v-1280h-256v768h-256z" />
<glyph unicode="n" d="M0 0v1280h256v-256h256v-256h-256v-768h-256zM512 512v256h256v-256h-256zM768 256v256h256v768h256v-1280h-256v256h-256z" />
<glyph unicode="o" d="M0 256v768h256v-768h-256zM256 0v256h768v-256h-768zM256 1024v256h768v-256h-768zM1024 256v768h256v-768h-256z" />
<glyph unicode="p" d="M0 0v1280h1024v-256h-768v-256h768v-256h-768v-512h-256zM1024 768v256h256v-256h-256z" />
<glyph unicode="q" horiz-adv-x="1814" d="M0 256v768h256v-768h-256zM256 0v256h256v256h256v-256h256v768h256v-768h256v-256h-1280zM256 1024v256h768v-256h-768z" />
<glyph unicode="r" d="M0 0v1280h1024v-256h-768v-256h768v-256h-768v-512h-256zM1024 0v512h256v-512h-256zM1024 768v256h256v-256h-256z" />
<glyph unicode="s" d="M0 0v256h1024v-256h-1024zM0 768v256h256v-256h-256zM256 512v256h768v-256h-768zM256 1024v256h1024v-256h-1024zM1024 256v256h256v-256h-256z" />
<glyph unicode="t" d="M0 1024v256h1280v-256h-512v-1024h-256v1024h-512z" />
<glyph unicode="u" d="M0 256v1024h256v-1024h-256zM256 0v256h768v-256h-768zM1024 256v1024h256v-1024h-256z" />
<glyph unicode="v" d="M0 512v768h256v-768h-256zM256 256v256h256v-256h-256zM512 0v256h256v-256h-256zM768 256v256h256v-256h-256zM1024 512v768h256v-768h-256z" />
<glyph unicode="w" d="M0 256v1024h256v-1024h-256zM256 0v256h256v-256h-256zM512 256v512h256v-512h-256zM768 0v256h256v-256h-256zM1024 256v1024h256v-1024h-256z" />
<glyph unicode="x" d="M0 0v512h256v-512h-256zM0 768v512h256v-512h-256zM256 512v256h768v-256h-768zM1024 0v512h256v-512h-256zM1024 768v512h256v-512h-256z" />
<glyph unicode="y" d="M0 768v512h256v-512h-256zM256 512v256h256v-256h-256zM512 0v512h256v-512h-256zM768 512v256h256v-256h-256zM1024 768v512h256v-512h-256z" />
<glyph unicode="z" d="M0 0v512h256v-256h1024v-256h-1280zM0 1024v256h1280v-512h-256v256h-1024zM256 512v256h768v-256h-768z" />
<glyph unicode="{" horiz-adv-x="1302" d="M0 512v256h256v-256h-256zM256 256v256h512v-256h-512zM256 768v256h512v-256h-512zM768 0v256h256v-256h-256zM768 1024v256h256v-256h-256z" />
<glyph unicode="|" horiz-adv-x="534" d="M0 0v1280h256v-1280h-256z" />
<glyph unicode="}" horiz-adv-x="1302" d="M0 0v256h256v-256h-256zM0 1024v256h256v-256h-256zM256 256v256h512v-256h-512zM256 768v256h512v-256h-512zM768 512v256h256v-256h-256z" />
<glyph unicode="~" d="M0 768v256h256v-256h-256zM256 1024v256h256v-256h-256zM512 768v256h256v-256h-256zM768 512v256h256v-256h-256zM1024 768v256h256v-256h-256z" />
<glyph unicode="&#xad;" d="M0 512v256h1280v-256h-1280z" />
<glyph unicode="&#x2000;" horiz-adv-x="1160" />
<glyph unicode="&#x2001;" horiz-adv-x="2320" />
<glyph unicode="&#x2002;" horiz-adv-x="1160" />
<glyph unicode="&#x2003;" horiz-adv-x="2320" />
<glyph unicode="&#x2004;" horiz-adv-x="773" />
<glyph unicode="&#x2005;" horiz-adv-x="580" />
<glyph unicode="&#x2006;" horiz-adv-x="386" />
<glyph unicode="&#x2007;" horiz-adv-x="386" />
<glyph unicode="&#x2008;" horiz-adv-x="290" />
<glyph unicode="&#x2009;" horiz-adv-x="464" />
<glyph unicode="&#x200a;" horiz-adv-x="128" />
<glyph unicode="&#x2010;" d="M0 512v256h1280v-256h-1280z" />
<glyph unicode="&#x2011;" d="M0 512v256h1280v-256h-1280z" />
<glyph unicode="&#x2012;" d="M0 512v256h1280v-256h-1280z" />
<glyph unicode="&#x2013;" horiz-adv-x="1302" d="M0 512v256h1024v-256h-1024z" />
<glyph unicode="&#x2014;" horiz-adv-x="2326" d="M0 512v256h2048v-256h-2048z" />
<glyph unicode="&#x2018;" horiz-adv-x="790" d="M0 1024v256h256v-256h-256zM256 768v256h256v-256h-256z" />
<glyph unicode="&#x2019;" horiz-adv-x="790" d="M0 768v256h256v-256h-256zM256 1024v256h256v-256h-256z" />
<glyph unicode="&#x201c;" horiz-adv-x="1302" d="M0 1024v256h256v-256h-256zM256 768v256h256v-256h-256zM512 1024v256h256v-256h-256zM768 768v256h256v-256h-256z" />
<glyph unicode="&#x201d;" horiz-adv-x="1302" d="M0 768v256h256v-256h-256zM256 1024v256h256v-256h-256zM512 768v256h256v-256h-256zM768 1024v256h256v-256h-256z" />
<glyph unicode="&#x202f;" horiz-adv-x="464" />
<glyph unicode="&#x205f;" horiz-adv-x="580" />
<glyph unicode="&#x25fc;" horiz-adv-x="1280" d="M0 0v1280h1280v-1280h-1280z" />
</font>
</defs>
</svg>
