<?xml version="1.0" standalone="no"?>
<!DOCTYPE svg PUBLIC "-//W3C//DTD SVG 20010904//EN"
 "http://www.w3.org/TR/2001/REC-SVG-20010904/DTD/svg10.dtd">
<svg version="1.0" xmlns="http://www.w3.org/2000/svg"
 width="1920.000000pt" height="1920.000000pt" viewBox="0 0 1920.000000 1920.000000"
 preserveAspectRatio="xMidYMid meet">
<metadata>
Created by potrace 1.11, written by Peter Selinger 2001-2013
</metadata>
<g transform="translate(0.000000,1920.000000) scale(0.100000,-0.100000)"
fill="#000000" stroke="none">
<path d="M13997 15869 c-49 -10 -118 -29 -155 -42 -44 -16 -102 -27 -171 -32
-79 -5 -131 -16 -224 -46 -66 -21 -136 -39 -156 -39 -57 -1 -190 -35 -261 -68
-36 -16 -90 -33 -120 -37 -36 -5 -87 -24 -148 -56 -51 -27 -100 -49 -110 -49
-9 0 -73 -29 -142 -64 -169 -87 -193 -99 -280 -136 -41 -18 -82 -38 -90 -45
-8 -7 -40 -25 -70 -41 -30 -15 -69 -37 -85 -49 -17 -12 -46 -26 -65 -30 -44
-9 -87 -31 -124 -62 -16 -13 -64 -42 -108 -64 -43 -21 -113 -64 -155 -95 -43
-31 -96 -65 -118 -76 -47 -24 -225 -157 -225 -168 0 -4 -17 -18 -37 -32 -230
-152 -300 -204 -334 -246 -13 -16 -37 -37 -54 -45 -16 -8 -39 -24 -50 -34 -41
-38 -268 -239 -308 -273 -117 -97 -256 -259 -274 -317 -6 -21 -9 -52 -6 -70 4
-27 0 -36 -30 -63 -129 -113 -49 -320 124 -320 37 0 57 -8 100 -38 59 -41 145
-94 211 -129 27 -15 60 -23 89 -23 25 0 77 -11 115 -26 126 -46 189 -64 229
-64 22 0 60 -6 85 -14 171 -55 255 -76 335 -82 50 -4 101 -11 115 -16 25 -10
152 -32 270 -48 36 -5 81 -14 100 -20 19 -5 116 -10 216 -10 139 0 190 -4 217
-15 30 -12 104 -15 440 -15 334 0 412 3 447 15 23 8 62 15 86 15 25 0 77 12
117 26 39 14 90 31 112 39 22 8 70 19 108 25 41 6 104 28 162 55 52 25 107 45
121 45 15 0 52 14 81 30 57 33 138 64 189 75 17 3 47 18 65 32 19 14 61 38 94
54 33 16 85 47 115 69 30 21 74 44 97 50 23 7 72 34 108 61 37 27 74 49 81 49
8 0 56 39 108 88 52 48 109 98 126 111 17 13 43 41 56 61 14 20 36 43 50 51
26 13 159 173 184 219 7 13 52 65 100 116 48 50 105 115 127 145 22 30 51 63
63 74 13 11 42 50 66 86 23 37 47 70 54 74 11 7 131 180 140 202 3 7 27 43 53
80 51 72 148 225 179 283 27 48 21 138 -12 182 -18 25 -21 35 -12 49 22 35 25
97 8 143 -28 73 -179 197 -286 235 -30 10 -91 35 -135 56 -210 96 -253 115
-290 126 -22 6 -53 18 -70 27 -16 8 -77 28 -135 43 l-105 29 -455 -1 c-405 -1
-465 -3 -543 -20z m1029 -369 c42 -12 89 -27 105 -35 15 -8 33 -15 40 -15 6 0
39 -13 73 -29 85 -40 237 -108 321 -143 71 -30 133 -70 141 -93 3 -7 -20 -50
-50 -95 -31 -45 -56 -86 -56 -90 0 -4 -21 -37 -47 -73 -27 -36 -72 -104 -102
-152 -30 -47 -76 -110 -103 -141 -26 -30 -48 -60 -48 -65 0 -5 -19 -31 -43
-57 -24 -26 -59 -69 -79 -97 -20 -27 -73 -86 -118 -130 -45 -44 -88 -93 -97
-110 -26 -51 -124 -174 -143 -180 -10 -3 -35 -25 -54 -48 -63 -74 -241 -237
-259 -237 -7 0 -32 -16 -56 -35 -24 -19 -50 -35 -57 -35 -16 0 -123 -57 -190
-101 -85 -56 -155 -92 -234 -120 -41 -14 -84 -30 -95 -34 -42 -17 29 47 98 86
127 75 196 225 182 399 -3 36 -15 97 -25 135 -11 39 -25 89 -30 112 -16 64
-166 236 -222 256 -123 42 -415 64 -485 36 -15 -6 -59 -15 -98 -19 -71 -7 -84
-13 -290 -119 -44 -22 -93 -56 -110 -74 -16 -19 -45 -40 -63 -47 -85 -33 -138
-161 -141 -342 -1 -72 3 -124 14 -160 8 -29 17 -96 19 -148 2 -61 9 -107 19
-126 23 -44 81 -92 121 -99 19 -4 43 -16 53 -27 10 -11 31 -27 46 -35 32 -16
177 -44 190 -36 5 3 29 1 55 -3 l47 -8 -60 -9 c-102 -15 -801 -20 -828 -5 -15
8 -87 13 -222 15 -110 2 -216 7 -235 12 -19 5 -71 14 -115 20 -130 18 -197 31
-243 46 -23 8 -71 15 -105 15 -69 1 -84 4 -247 54 -63 19 -134 36 -158 36 -23
0 -68 10 -100 21 -143 53 -225 79 -248 79 -27 0 -145 64 -190 104 l-27 22 37
50 c20 27 72 81 115 119 43 39 133 118 199 177 66 58 133 114 149 124 15 10
55 43 88 74 65 61 170 139 250 185 28 16 77 54 110 84 33 31 94 78 135 105 41
27 114 75 161 107 48 32 124 76 170 100 46 23 97 52 112 65 16 13 37 24 48 24
22 0 75 24 99 45 32 28 238 137 302 160 37 13 86 38 108 54 23 17 58 35 78 42
20 6 49 20 64 31 15 10 47 22 71 27 25 4 81 29 125 55 49 28 91 46 111 46 17
0 77 18 134 41 70 28 127 43 182 49 45 5 134 26 204 49 104 35 136 41 206 41
68 0 99 6 186 36 57 20 122 39 144 44 22 4 230 8 463 9 395 1 427 0 498 -19z"/>
<path d="M5580 13072 c-25 -1 -99 -9 -165 -17 -67 -8 -151 -15 -187 -15 -36 0
-119 -6 -185 -14 -65 -8 -165 -20 -223 -26 -288 -32 -339 -39 -395 -60 -74
-27 -233 -70 -259 -70 -10 0 -56 -18 -102 -40 -48 -23 -98 -40 -118 -40 -19 0
-72 -14 -118 -30 -46 -17 -130 -47 -188 -66 -112 -38 -173 -69 -285 -143 -38
-26 -98 -62 -132 -80 -34 -18 -64 -39 -67 -46 -3 -8 -22 -17 -43 -21 -21 -3
-56 -16 -78 -29 -22 -13 -89 -48 -150 -79 -60 -31 -140 -80 -177 -110 -37 -30
-84 -64 -105 -74 -43 -23 -74 -53 -96 -97 -8 -16 -45 -57 -81 -90 -39 -35 -75
-78 -87 -105 -12 -25 -37 -62 -55 -83 -19 -20 -34 -41 -34 -46 0 -5 -26 -38
-59 -74 -47 -52 -62 -78 -80 -135 -11 -38 -21 -85 -21 -104 0 -43 -6 -50 -61
-77 -80 -38 -122 -126 -99 -210 20 -75 54 -102 227 -174 87 -37 169 -73 183
-81 14 -8 54 -31 89 -51 35 -20 83 -40 106 -44 24 -4 58 -17 76 -28 19 -12 78
-39 131 -62 53 -22 111 -50 130 -60 18 -11 51 -23 73 -27 75 -13 333 -110 409
-153 28 -16 71 -32 96 -36 25 -4 82 -25 127 -46 45 -21 123 -48 173 -59 51
-11 106 -28 123 -36 46 -24 154 -51 232 -59 39 -3 125 -20 191 -36 86 -20 147
-29 207 -29 47 0 127 -8 178 -18 122 -24 458 -22 528 2 24 9 64 16 90 16 25 0
68 7 95 15 27 8 68 15 91 15 24 0 62 7 85 15 25 9 78 15 131 15 86 0 118 6
264 48 96 27 162 39 285 51 80 7 138 21 242 55 75 25 145 46 155 46 25 0 161
47 190 66 12 8 36 14 53 14 47 0 180 40 220 66 19 13 55 30 80 38 96 31 136
48 168 73 19 14 56 33 82 43 27 10 75 38 107 62 32 25 87 62 123 82 110 64
223 138 328 213 54 39 123 86 153 104 30 17 69 49 87 69 18 21 48 48 67 60 19
12 56 49 82 83 26 34 72 91 103 127 31 36 67 83 80 104 13 22 37 54 52 72 15
17 34 47 42 66 18 42 100 185 147 254 19 29 46 74 61 100 15 27 37 61 49 75
13 16 23 49 29 91 4 35 14 78 23 94 48 94 31 159 -69 253 -67 64 -80 72 -166
100 -51 16 -139 48 -195 70 -57 23 -115 41 -130 41 -16 0 -66 14 -113 31 -77
27 -238 69 -365 96 -27 6 -81 22 -119 37 -41 15 -89 26 -118 26 -29 0 -88 13
-140 30 -49 17 -108 30 -131 30 -23 0 -78 7 -122 16 -69 14 -189 16 -880 18
-440 0 -820 0 -845 -2z m1677 -383 c62 -10 124 -19 138 -19 15 0 65 -13 112
-30 46 -17 105 -30 130 -30 25 0 88 -13 140 -30 51 -16 101 -30 111 -30 29 0
233 -56 305 -84 37 -14 79 -26 93 -26 27 0 171 -46 189 -60 6 -5 32 -14 58
-21 27 -6 51 -18 54 -25 3 -7 -6 -30 -19 -51 -12 -21 -31 -56 -41 -78 -10 -22
-26 -49 -36 -60 -19 -21 -101 -163 -134 -229 -23 -47 -110 -166 -194 -265 -35
-41 -63 -78 -63 -82 0 -5 -20 -20 -44 -34 -24 -14 -56 -42 -71 -61 -14 -19
-43 -43 -63 -54 -20 -11 -50 -30 -67 -43 -147 -110 -220 -158 -414 -272 -37
-22 -82 -52 -99 -67 -17 -14 -54 -34 -81 -43 -27 -9 -55 -23 -62 -31 -19 -23
-77 -50 -143 -67 -32 -9 -75 -27 -97 -41 -41 -27 -103 -45 -158 -46 -19 0 -67
-16 -108 -36 -41 -19 -107 -42 -146 -50 -40 -8 -117 -31 -172 -50 -77 -27
-126 -37 -210 -44 -60 -5 -135 -16 -165 -24 -68 -19 -66 -20 -48 2 8 9 31 47
52 84 20 37 52 88 71 113 19 25 60 89 91 141 49 86 56 106 65 178 8 72 6 94
-18 201 -30 140 -91 296 -130 338 -16 16 -44 36 -63 44 -19 8 -57 32 -85 52
-27 21 -78 50 -112 65 -60 26 -68 27 -205 24 -118 -3 -152 -7 -193 -25 -27
-12 -81 -33 -120 -48 -175 -69 -203 -87 -345 -227 -137 -135 -182 -196 -270
-366 -34 -65 -35 -70 -38 -204 -3 -122 -1 -144 19 -200 26 -71 130 -231 170
-259 14 -10 52 -28 85 -40 32 -12 62 -25 67 -28 15 -15 -181 -8 -288 9 -60 9
-141 18 -180 19 -38 0 -115 12 -170 25 -55 14 -143 30 -195 36 -57 7 -122 22
-165 39 -38 16 -102 35 -140 44 -39 9 -109 34 -155 55 -47 22 -101 42 -120 46
-19 4 -62 20 -95 36 -33 16 -105 46 -160 66 -55 20 -122 45 -150 56 -27 11
-75 25 -105 32 -31 7 -67 20 -80 29 -14 9 -59 29 -101 46 -41 17 -102 46 -134
66 -32 19 -72 35 -88 35 -17 0 -64 19 -108 45 -44 25 -91 50 -105 55 -18 7
-24 15 -20 27 4 9 11 45 16 81 6 46 16 72 33 91 13 14 33 40 43 56 10 17 37
53 59 80 23 28 50 66 60 85 10 19 45 60 79 91 34 31 68 68 75 83 8 14 20 26
26 26 6 0 43 27 81 60 66 57 280 180 314 180 40 0 96 25 134 59 22 21 57 46
76 56 19 10 79 47 133 82 67 45 124 74 185 94 48 15 116 40 152 54 36 15 95
31 131 35 41 6 99 24 151 48 46 21 103 42 127 46 24 3 91 23 149 42 74 25 146
40 232 50 306 35 404 45 542 55 81 6 193 16 250 23 73 9 330 12 883 13 727 1
788 0 892 -18z"/>
<path d="M10263 11176 c-68 -32 -103 -89 -103 -167 0 -61 27 -114 102 -199 78
-89 117 -152 129 -209 6 -31 26 -83 44 -116 18 -33 36 -71 40 -85 4 -14 25
-53 46 -87 25 -41 39 -74 39 -96 0 -34 44 -182 59 -202 5 -5 18 -37 30 -70 12
-33 37 -89 55 -125 19 -36 43 -95 54 -133 14 -48 41 -96 93 -170 78 -111 99
-151 99 -194 0 -28 24 -83 60 -139 11 -18 27 -64 34 -103 10 -49 22 -82 42
-107 34 -41 95 -134 123 -184 11 -19 34 -48 51 -65 18 -16 56 -63 86 -102 57
-77 86 -97 192 -132 34 -12 87 -34 118 -50 l55 -28 -40 -36 c-21 -19 -50 -41
-63 -47 -12 -7 -36 -25 -53 -40 -16 -16 -54 -41 -82 -57 -34 -18 -117 -92
-230 -204 -98 -96 -189 -184 -203 -195 -33 -25 -77 -85 -96 -129 -38 -93 3
-191 101 -236 99 -46 128 -29 382 226 134 135 231 224 261 240 26 14 83 55
127 90 44 35 116 90 160 122 104 76 189 163 230 238 41 74 51 122 34 172 -27
83 -75 120 -175 134 -68 9 -221 65 -289 104 -22 13 -57 27 -78 30 -28 5 -46
17 -65 43 -15 20 -48 59 -75 87 -26 27 -63 75 -81 105 -19 30 -44 67 -55 82
-12 14 -21 35 -21 46 0 25 -46 148 -71 188 -10 17 -19 40 -19 50 -1 44 -61
166 -125 254 -50 69 -77 119 -100 185 -18 49 -47 116 -64 149 -17 32 -31 64
-31 71 0 7 -13 42 -30 77 -16 34 -30 79 -30 98 0 54 -16 101 -66 190 -25 45
-52 101 -61 124 -9 22 -24 52 -33 66 -9 14 -20 41 -24 60 -9 52 -46 141 -73
178 -13 17 -31 54 -39 81 -17 58 -45 96 -87 118 -17 9 -50 35 -73 59 -40 40
-91 64 -139 64 -11 0 -43 -11 -72 -24z"/>
<path d="M11071 10544 c-25 -20 -31 -34 -31 -64 0 -33 7 -45 46 -82 26 -23 62
-65 80 -93 19 -27 57 -79 84 -115 27 -36 64 -92 82 -125 51 -97 193 -286 299
-400 57 -61 127 -115 196 -153 52 -29 116 14 116 79 0 35 -46 87 -108 124 -23
13 -59 45 -80 71 -22 26 -56 66 -76 88 -53 60 -159 210 -194 275 -44 81 -99
163 -125 186 -12 11 -29 33 -37 50 -23 42 -112 143 -149 166 -42 26 -66 24
-103 -7z m157 -52 c29 -33 57 -71 185 -245 21 -29 48 -73 61 -100 52 -105 271
-379 346 -434 94 -67 113 -88 113 -123 0 -36 -39 -80 -72 -80 -17 0 -129 70
-175 109 -26 22 -155 174 -190 225 -16 22 -53 73 -81 111 -29 39 -67 97 -84
130 -17 33 -49 83 -71 110 -22 28 -55 73 -73 100 -19 28 -57 74 -86 103 -67
69 -70 121 -7 147 41 17 89 -1 134 -53z"/>
<path d="M7623 7950 c-43 -18 -58 -76 -69 -282 -7 -116 -17 -131 -66 -96 -18
12 -61 48 -95 78 -145 129 -181 150 -252 150 -77 0 -119 -93 -66 -145 13 -14
35 -25 48 -25 15 0 53 -25 103 -67 l79 -68 -132 -5 c-122 -5 -133 -7 -157 -29
-34 -32 -35 -80 -2 -118 24 -27 27 -28 146 -31 l122 -4 -79 -45 c-43 -25 -102
-58 -131 -75 -29 -17 -59 -40 -67 -51 -34 -48 -7 -119 51 -133 29 -7 101 22
174 72 25 16 84 51 132 77 47 26 88 53 91 60 2 6 7 9 11 6 4 -4 -2 -24 -13
-45 -12 -21 -21 -46 -21 -56 0 -9 -9 -41 -19 -70 -33 -90 -35 -120 -10 -152
31 -39 62 -49 104 -31 37 15 40 20 75 135 21 68 60 179 67 189 1 2 29 -25 61
-59 52 -57 63 -64 97 -64 29 0 43 6 61 28 36 41 31 76 -20 138 l-45 53 259 5
c245 5 261 6 280 26 11 11 23 36 26 55 5 29 1 41 -19 65 l-25 29 -272 3 -271
3 52 37 c93 65 139 115 139 151 0 40 -47 91 -83 91 -13 0 -54 -22 -92 -51
l-68 -50 7 53 c23 180 18 216 -35 243 -32 17 -44 18 -76 5z"/>
<path d="M14482 7059 c-23 -12 -47 -30 -53 -41 -10 -18 -8 -19 28 -12 61 11
168 48 168 59 0 20 -98 16 -143 -6z"/>
<path d="M13732 6158 c-91 -20 -162 -144 -162 -282 0 -43 -6 -70 -25 -105 -34
-64 -124 -285 -141 -346 -7 -27 -22 -70 -33 -95 -10 -25 -33 -83 -51 -130 -40
-103 -115 -246 -135 -253 -7 -3 -26 -27 -41 -54 -15 -26 -46 -68 -69 -93 -22
-25 -54 -65 -71 -89 -16 -25 -52 -59 -81 -78 -29 -18 -57 -42 -63 -53 -6 -11
-32 -31 -58 -44 -27 -14 -54 -31 -61 -39 -17 -22 -236 -127 -263 -127 -30 0
-128 -32 -202 -65 -33 -14 -91 -30 -130 -35 -39 -4 -102 -19 -141 -32 -48 -17
-96 -25 -151 -26 -45 -1 -104 -9 -130 -17 -73 -22 -594 -22 -659 0 -32 12 -95
17 -223 18 l-177 3 -38 37 c-21 20 -54 41 -75 47 -21 6 -155 10 -315 10 l-278
0 -66 35 c-105 56 -203 40 -257 -42 -52 -80 -47 -161 16 -229 22 -24 50 -46
61 -50 12 -4 33 -14 47 -24 14 -9 55 -26 91 -38 57 -19 88 -22 240 -22 l175 0
30 -31 c58 -61 60 -61 384 -63 222 -1 301 -5 319 -15 34 -19 708 -24 769 -5
24 7 89 16 145 19 73 5 126 15 187 36 46 16 101 29 121 29 40 0 162 37 226 69
23 11 77 27 120 34 52 10 103 27 153 54 41 22 99 46 129 53 42 10 64 23 96 55
22 23 59 52 82 63 23 12 54 37 70 56 15 19 45 44 65 56 34 20 62 51 201 219
28 35 79 93 113 130 35 38 67 84 74 107 7 21 23 57 35 80 13 22 42 87 65 145
22 57 50 127 61 154 12 28 28 73 35 100 7 28 22 70 33 95 11 25 32 77 46 115
15 39 40 93 55 120 32 57 48 113 63 230 18 144 15 197 -13 238 -44 64 -118 92
-198 75z"/>
</g>
</svg>
